<?xml version="1.0" encoding="UTF-8"?>
<svg width="140px" height="140px" viewBox="0 0 140 140" version="1.1" xmlns="http://www.w3.org/2000/svg" xmlns:xlink="http://www.w3.org/1999/xlink">
    <!-- Generator: Sketch 46.1 (44463) - http://www.bohemiancoding.com/sketch -->
    <title>acf_icon</title>
    <desc>Created with Sketch.</desc>
    <defs></defs>
    <g id="UI" stroke="none" stroke-width="1" fill="none" fill-rule="evenodd">
        <g id="lean_landing_ui" transform="translate(-395.000000, -1414.000000)">
            <g id="Group-27" transform="translate(265.000000, 1414.000000)">
                <g id="acf_icon" transform="translate(130.000000, 0.000000)">
                    <circle id="Oval-2" fill="#F0F7FA" cx="70" cy="70" r="70"></circle>
                    <g id="acf" transform="translate(31.000000, 53.000000)" fill-rule="nonzero" fill="#FF3030">
                        <path d="M17.3891514,14.2252216 L20.4356247,22.463561 L14.4696511,22.5183403 C14.5416219,21.8499752 15.5977795,19.2208597 15.8795188,18.3936637 L17.2896793,14.3840525 C17.3669165,14.2362354 17.3338566,14.2965216 17.3891514,14.2252216 Z M51.6308913,15.1840039 L55.6890524,15.1840039 L55.6890524,21.0392999 L51.6308913,21.0448068 C51.1110039,23.1098985 49.5077511,25.0271733 47.8102923,26.2320275 C41.6673171,30.5978487 32.2236302,26.4294067 32.1905703,18.1583157 C32.1683355,13.0038466 36.0000519,9.0872733 40.5947762,8.35891181 C45.4715326,7.59200193 50.469703,10.7361585 51.6308913,15.1840039 Z M0,35.6865249 L0,35.7630421 L9.26668541,35.7740555 L11.1522631,30.8497178 C11.3181471,30.515535 11.1467044,30.7074072 11.3790005,30.5868348 L23.5373927,30.5978487 C23.7143943,31.189407 25.3785004,35.4288593 25.5996793,35.6972487 L35.25372,35.7795625 L34.7227157,34.4266016 C37.3490665,35.2372767 39.3838521,36.0369385 42.906035,35.9986799 C46.9033428,35.9494073 50.7295003,34.1637186 53.2894389,32.1258719 C53.7484721,31.7644444 54.0746816,31.501562 54.5003631,31.0633277 C54.8874257,30.674366 55.2744883,30.2964181 55.6782272,29.902239 L55.6890524,35.9986799 L64.3036116,35.9986799 L64.3036116,29.5022634 C64.3036116,28.4779778 64.1763457,23.5646535 64.3533473,22.9786022 L78.1097264,22.9455607 L78.1097264,14.9538729 L64.3752898,14.9593798 L64.2980526,14.8553282 C64.2149646,14.5814319 64.2647004,12.0560782 64.2647004,11.7384164 C64.2647004,11.0703411 64.1043751,8.87917003 64.3533473,8.42470489 L79,8.39166346 L79,0.126079304 L55.6559924,0.126079304 L55.6890524,6.33207858 C54.1963884,4.94636575 54.4784205,4.94085885 52.5264306,3.5331184 C48.6230364,0.71763751 43.1380385,-0.438234207 38.2226637,0.684885858 C34.8002452,1.46802662 31.9360397,3.04561183 29.4922489,5.42285852 C29.2157753,5.69124801 29.0387742,5.91036509 28.7570344,6.18426149 C27.6622587,7.23579174 26.1581845,9.68433841 25.5443846,11.2181582 L25.2734699,11.7549371 C24.9197595,10.6648585 22.2767328,4.55189701 21.6076376,2.93054639 C21.2814287,2.14189867 20.7451577,0.624599684 20.34727,0 L14.2707073,0 L0,35.6865249 Z" id="Shape"></path>
                    </g>
                </g>
            </g>
        </g>
    </g>
</svg>