<?xml version="1.0" encoding="UTF-8"?>
<svg width="140px" height="140px" viewBox="0 0 140 140" version="1.1" xmlns="http://www.w3.org/2000/svg" xmlns:xlink="http://www.w3.org/1999/xlink">
    <!-- Generator: Sketch 46.1 (44463) - http://www.bohemiancoding.com/sketch -->
    <title>acf_icon</title>
    <desc>Created with Sketch.</desc>
    <defs></defs>
    <g id="UI" stroke="none" stroke-width="1" fill="none" fill-rule="evenodd">
        <g id="lean_landing_ui" transform="translate(-395.000000, -1414.000000)">
            <g id="Group-27" transform="translate(265.000000, 1414.000000)">
                <g id="acf_icon" transform="translate(130.000000, 0.000000)">
                    <circle id="Oval-2" fill="#F0F7FA" cx="70" cy="70" r="70"></circle>
                    <g id="acf" transform="translate(23.000000, 49.000000)" fill-rule="nonzero" fill="#FF3030">
                        <path d="M20.690889,16.9471038 L24.3158066,26.7617835 L17.2170532,26.8270444 C17.3026894,26.030793 18.5593832,22.8986173 18.8946173,21.9131439 L20.5725298,17.1363258 C20.6644323,16.9602251 20.6250952,17.0320466 20.690889,16.9471038 Z M61.4342251,18.0893414 L66.2629231,18.0893414 L66.2629231,25.0650014 L61.4342251,25.071562 C60.8156249,27.5317926 58.907957,29.8159225 56.8881959,31.2513159 C49.578833,36.4525021 38.342041,31.486462 38.3027039,21.632764 C38.2762473,15.4920286 42.8355048,10.8260503 48.3026451,9.95832264 C54.1053679,9.0446707 60.052558,12.7904364 61.4342251,18.0893414 Z M0,42.5148556 L0,42.6060138 L11.0261826,42.6191345 L13.2697814,36.7525642 C13.4671624,36.3544382 13.2631673,36.5830236 13.5395702,36.4393807 L28.0065179,36.4525021 C28.2171274,37.1572502 30.197203,42.2078878 30.4603779,42.5276314 L41.9474643,42.6256952 L41.3156364,41.0138561 C44.4406614,41.9796474 46.8617987,42.932318 51.0527505,42.8867389 C55.8090408,42.8280385 60.3616839,40.7006726 63.4076868,38.2729002 C63.9538782,37.8423164 64.3420262,37.5291336 64.8485333,37.0070467 C65.3090888,36.5436602 65.7696443,36.0933951 66.2500425,35.623793 L66.2629231,42.8867389 L76.5131581,42.8867389 L76.5131581,35.1472852 C76.5131581,33.9270108 76.3617278,28.0735612 76.5723373,27.3753737 L92.9406871,27.33601 L92.9406871,17.8151768 L76.5984461,17.8217374 L76.5065436,17.6977763 C76.4076794,17.3714721 76.4668587,14.3629122 76.4668587,13.9844684 C76.4668587,13.1885622 76.2760919,10.5781281 76.5723373,10.0367047 L94,9.99734106 L94,0.150203569 L66.2235859,0.150203569 L66.2629231,7.54367111 C64.4868419,5.89281323 64.8224244,5.88625262 62.4998035,4.20915231 C57.8552585,0.8549517 51.3288053,-0.522086813 45.4801315,0.815933282 C41.4078867,1.74892176 37.9998447,3.62836526 35.092043,6.46047906 C34.7630744,6.78022274 34.5524655,7.04126611 34.2172308,7.3675704 C32.9145863,8.62030255 31.1249284,11.537359 30.3945842,13.3646629 L30.07223,14.0041502 C29.6513594,12.7054937 26.5064922,5.42286605 25.7103536,3.49128297 C25.3222063,2.55173383 24.6841117,0.744111832 24.2106757,0 L16.9803352,0 L0,42.5148556 Z" id="Shape"></path>
                    </g>
                </g>
            </g>
        </g>
    </g>
</svg>