<?xml version="1.0" encoding="UTF-8"?>
<svg width="140px" height="140px" viewBox="0 0 140 140" version="1.1" xmlns="http://www.w3.org/2000/svg" xmlns:xlink="http://www.w3.org/1999/xlink">
    <!-- Generator: Sketch 46.1 (44463) - http://www.bohemiancoding.com/sketch -->
    <title>frontend_icon</title>
    <desc>Created with Sketch.</desc>
    <defs></defs>
    <g id="UI" stroke="none" stroke-width="1" fill="none" fill-rule="evenodd">
        <g id="lean_landing_ui" transform="translate(-905.000000, -1414.000000)">
            <g id="Group-26" transform="translate(775.000000, 1414.000000)">
                <g id="frontend_icon" transform="translate(130.000000, 0.000000)">
                    <circle id="Oval-2" fill="#F0F7FA" cx="70" cy="70" r="70"></circle>
                    <g id="code" transform="translate(33.033708, 38.539326)" fill="#FF3030" fill-rule="nonzero">
                        <path d="M73.1386938,30.7077809 L58.4136236,18.8723596 C57.4452247,17.9339326 55.8746489,17.9339326 54.9087079,18.8723596 C53.940309,19.8107865 53.940309,21.3308427 54.9087079,22.2717135 L67.667486,32.528427 L54.9087079,42.7875843 C53.940309,43.7235674 53.940309,45.2460674 54.9087079,46.1844944 C55.8746489,47.1253652 57.4452247,47.1253652 58.4136236,46.1844944 L73.1386938,34.349073 C73.6548455,33.8480899 73.8735955,33.1833708 73.8391854,32.528427 C73.8735955,31.8734831 73.6548455,31.2063202 73.1386938,30.7077809 L73.1386938,30.7077809 Z M19.0238764,42.7851404 L6.26509831,32.528427 L19.0238764,22.2717135 C19.9922753,21.3308427 19.9922753,19.8083427 19.0238764,18.8723596 C18.0579354,17.9314888 16.4873596,17.9314888 15.5189607,18.8723596 L0.793890449,30.7077809 C0.277738764,31.2063202 0.058988764,31.8734831 0.0933988764,32.528427 C0.058988764,33.1833708 0.277738764,33.8480899 0.793890449,34.349073 L15.5189607,46.1844944 C16.4873596,47.1253652 18.0579354,47.1253652 19.0238764,46.1844944 C19.9922753,45.2460674 19.9922753,43.7235674 19.0238764,42.7851404 L19.0238764,42.7851404 Z M54.0730337,0.384859551 C52.8957163,-0.27741573 51.3939607,0.116039326 50.7155899,1.25974719 L19.9922753,60.1240449 C19.3114466,61.2701966 19.5941011,63.0224157 20.8918539,63.3963202 C22.477177,63.8533146 23.570927,63.6675843 24.2492978,62.5214326 L54.9726124,3.65469101 C55.6509831,2.50853933 55.2478933,1.04713483 54.0730337,0.384859551 L54.0730337,0.384859551 Z"></path>
                    </g>
                </g>
            </g>
        </g>
    </g>
</svg>