<?xml version="1.0" encoding="UTF-8"?>
<svg width="20px" height="18px" viewBox="0 0 20 18" version="1.1" xmlns="http://www.w3.org/2000/svg" xmlns:xlink="http://www.w3.org/1999/xlink">
    <!-- Generator: Sketch 46.1 (44463) - http://www.bohemiancoding.com/sketch -->
    <title>heart</title>
    <desc>Created with Sketch.</desc>
    <defs></defs>
    <g id="UI" stroke="none" stroke-width="1" fill="none" fill-rule="evenodd">
        <g id="lean_landing_ui" transform="translate(-343.000000, -3837.000000)" fill="#FF3030">
            <g id="Group-9" transform="translate(246.000000, 3828.000000)">
                <g id="Group-10">
                    <path d="M107,26.1428575 C106.806547,26.1428575 106.642857,26.0758939 106.508927,25.9419646 L99.5446425,19.223215 C99.4702377,19.16369 99.3679322,19.066965 99.2377233,18.933035 C99.1075142,18.7991075 98.901043,18.5554325 98.6183035,18.20201 C98.335564,17.848585 98.0825905,17.485865 97.859375,17.11384 C97.6361595,16.741815 97.4371287,16.29167 97.2622767,15.7633925 C97.0874247,15.2351175 97,14.72173 97,14.223215 C97,12.5863025 97.4724655,11.3065525 98.4174108,10.38393 C99.362356,9.461305 100.668148,9 102.334823,9 C102.796132,9 103.266738,9.079985 103.746652,9.239955 C104.226565,9.3999275 104.67299,9.6156975 105.085938,9.8872775 C105.498885,10.158855 105.854165,10.41369 106.151785,10.651785 C106.449405,10.8898825 106.732142,11.142855 107,11.410715 C107.267857,11.142855 107.550592,10.8898825 107.848215,10.651785 C108.145835,10.41369 108.501115,10.158855 108.914062,9.8872775 C109.32701,9.6156975 109.773435,9.3999275 110.253347,9.239955 C110.733262,9.079985 111.203868,9 111.665177,9 C113.331852,9 114.637645,9.461305 115.58259,10.38393 C116.527535,11.3065525 117,12.5863025 117,14.223215 C117,15.8675675 116.148075,17.5416575 114.444198,19.245535 L107.491073,25.9419646 C107.357142,26.0758939 107.193452,26.1428575 107,26.1428575 Z" id="heart"></path>
                </g>
            </g>
        </g>
    </g>
</svg>