<?xml version="1.0" encoding="UTF-8"?>
<svg width="183px" height="37px" viewBox="0 0 183 37" version="1.1" xmlns="http://www.w3.org/2000/svg" xmlns:xlink="http://www.w3.org/1999/xlink">
    <!-- Generator: Sketch 46.1 (44463) - http://www.bohemiancoding.com/sketch -->
    <title>logo secondary positive</title>
    <desc>Created with Sketch.</desc>
    <defs>
        <rect id="path-1" x="0.0691554669" y="0.0689190957" width="36.9290193" height="36.8027971"></rect>
    </defs>
    <g id="UI" stroke="none" stroke-width="1" fill="none" fill-rule="evenodd">
        <g id="lean_landing_ui" transform="translate(-417.000000, -3309.000000)">
            <g id="Group-24" transform="translate(159.000000, 3208.000000)">
                <g id="Group-21" transform="translate(100.000000, 101.000000)">
                    <g id="Group-23">
                        <g id="Group-22">
                            <g id="logo-secondary-positive" transform="translate(158.000000, 0.000000)">
                                <g id="Group-4-Copy-4" transform="translate(58.679683, 11.001022)" fill="#373E4A">
                                    <polygon id="Shape" points="11.1752004 0.349585611 14.437526 0.349585611 14.437526 18.1784518 12.4246017 18.1784518 12.4246017 18.1784518 3.2623256 6.15104206 3.2623256 18.1784518 0 18.1784518 0 0.42033508 2.63762495 0.42033508 11.1752004 11.4572522"></polygon>
                                    <path d="M46.4051528,9.36969191 C46.3358743,13.9488646 43.5647346,18.5280374 37.4682271,18.5280374 C31.3717197,18.5280374 28.5313015,14.0193135 28.5313015,9.36969191 C28.5313015,4.72007036 31.4409982,0 37.4682271,0 C43.4954561,0.0704488113 46.4744313,4.72007036 46.4051528,9.36969191 L46.4051528,9.36969191 Z M31.7873907,9.44014072 C31.8566692,12.328542 33.380796,15.4282897 37.5375056,15.4282897 C41.6249368,15.4282897 43.2183421,12.2580932 43.2183421,9.36969191 C43.2876206,6.41084183 41.6249368,3.02929889 37.5375056,3.02929889 C33.380796,3.0997477 31.7181122,6.41084183 31.7873907,9.44014072 L31.7873907,9.44014072 Z" id="Shape"></path>
                                    <polygon id="Shape" points="63.8560474 0.349585611 63.8560474 15.0654751 72.8751315 15.0654751 72.8751315 18.1784518 60.5001091 18.1784518 60.5001091 0.42033508 63.8560474 0.42033508"></polygon>
                                    <path d="M88.079869,3.4039332 L82.5001488,3.4039332 L82.5001488,0.349585611 L96.9376749,0.349585611 L96.9376749,3.4039332 L91.3579547,3.4039332 L91.3579547,18.1784518 L88.079869,18.1784518 L88.079869,3.4039332 L88.079869,3.4039332 Z" id="Shape"></path>
                                    <path d="M123.750223,18.1784518 L110.6877,18.1784518 L110.6877,0.349585611 L123.750223,0.349585611 L123.750223,3.61702722 L113.953331,3.61702722 L113.953331,7.7368449 L123.402816,7.7368449 L123.402816,10.8622238 L113.953331,10.8622238 L113.953331,14.9110102 L123.750223,14.9110102 L123.750223,18.1784518 L123.750223,18.1784518 Z" id="Shape"></path>
                                </g>
                                <g id="Group-5">
                                    <g id="Rectangle-16" opacity="0">
                                        <use fill="#D00000" fill-rule="evenodd" xlink:href="#path-1"></use>
                                        <rect stroke="#979797" stroke-width="0.50955414" x="0.323932537" y="0.323696166" width="36.4194652" height="36.2932429"></rect>
                                    </g>
                                    <polygon id="Shape" fill="#D00000" points="25.8019047 7.50528952 25.8019047 12.8396275 13.0427211 0.0620271861 7.81456776 0.0620271861 25.8019047 17.987884 29.5362999 21.7095151 29.5362999 16.4992315 29.5362999 7.50528952"></polygon>
                                    <polygon id="Shape" fill="#D00000" points="36.8806105 34.2390067 36.8806105 0.0620271861 33.2084552 0.0620271861 25.8019047 0.0620271861 25.8019047 3.78365835 33.2084552 3.78365835 33.2084552 30.5173756 2.64865438 0.0620271861 0.0345777334 0.0620271861 0.0345777334 0.0620271861 0.0345777334 0.124054372 0.0345777334 1.30257091 0.0345777334 2.667169 0.0345777334 33.1225174 0.0345777334 36.8441485 3.70673303 36.8441485 11.1132835 36.8441485 11.1132835 33.1225174 3.70673303 33.1225174 3.70673303 6.38880017 34.2665338 36.8441485 36.8806105 36.8441485 36.8806105 36.8441485 36.8806105 36.7821214 36.8806105 36.7821214"></polygon>
                                    <polygon id="Shape" fill="#D00000" points="11.1132835 18.9182918 7.37888832 15.1966606 7.37888832 20.4069442 7.37888832 29.4008862 11.1132835 29.4008862 11.1132835 24.0665482 23.8724672 36.8441485 29.0383806 36.8441485"></polygon>
                                </g>
                            </g>
                        </g>
                    </g>
                </g>
            </g>
        </g>
    </g>
</svg>