<?xml version="1.0" encoding="UTF-8"?>
<svg width="196px" height="34px" viewBox="0 0 196 34" version="1.1" xmlns="http://www.w3.org/2000/svg" xmlns:xlink="http://www.w3.org/1999/xlink">
    <!-- Generator: Sketch 46.1 (44463) - http://www.bohemiancoding.com/sketch -->
    <title>LEANWP</title>
    <desc>Created with Sketch.</desc>
    <defs></defs>
    <g id="UI" stroke="none" stroke-width="1" fill="none" fill-rule="evenodd">
        <g id="lean_landing_ui" transform="translate(-253.000000, -164.000000)" fill="#373E4A">
            <path d="M259.744,164.4 L253.12,164.4 L253.12,198 L272.56,198 L272.56,191.664 L259.744,191.664 L259.744,164.4 Z M284.928,184.128 L297.648,184.128 L297.648,177.888 L284.928,177.888 L284.928,170.736 L298.848,170.736 L298.848,164.4 L278.304,164.4 L278.304,198 L299.088,198 L299.088,191.664 L284.928,191.664 L284.928,184.128 Z M335.072,198 L327.872,198 L325.856,191.952 L312.464,191.952 L310.448,198 L303.296,198 L315.056,164.4 L323.264,164.4 L335.072,198 Z M319.184,172.032 L314.576,185.76 L323.792,185.76 L319.184,172.032 Z M359.776,184.896 L345.376,164.4 L340.336,164.4 L340.336,198 L346.96,198 L346.96,177.456 L361.36,198 L366.4,198 L366.4,164.4 L359.776,164.4 L359.776,184.896 Z M389.184,198 L395.472,175.824 L401.808,198 L409.344,198 L418.752,164.4 L411.792,164.4 L405.36,189.312 L398.304,164.4 L392.64,164.4 L385.632,189.312 L379.2,164.4 L372.24,164.4 L381.648,198 L389.184,198 Z M424.592,164.4 L437.12,164.4 C440.336,164.4 443.072,165.504 445.28,167.664 C447.488,169.824 448.592,172.512 448.592,175.68 C448.592,178.848 447.488,181.536 445.28,183.696 C443.072,185.856 440.336,186.96 437.12,186.96 L431.216,186.96 L431.216,198 L424.592,198 L424.592,164.4 Z M431.216,180.768 L437.12,180.768 C439.952,180.768 442.016,178.56 442.016,175.68 C442.016,172.752 439.952,170.592 437.12,170.592 L431.216,170.592 L431.216,180.768 Z" id="LEANWP"></path>
        </g>
    </g>
</svg>