<?xml version="1.0" encoding="UTF-8"?>
<svg width="140px" height="140px" viewBox="0 0 140 140" version="1.1" xmlns="http://www.w3.org/2000/svg" xmlns:xlink="http://www.w3.org/1999/xlink">
    <!-- Generator: Sketch 46.1 (44463) - http://www.bohemiancoding.com/sketch -->
    <title>modular_icon</title>
    <desc>Created with Sketch.</desc>
    <defs></defs>
    <g id="UI" stroke="none" stroke-width="1" fill="none" fill-rule="evenodd">
        <g id="lean_landing_ui" transform="translate(-395.000000, -1847.000000)">
            <g id="Group-28" transform="translate(250.000000, 1847.000000)">
                <g id="modular_icon" transform="translate(145.000000, 0.000000)">
                    <circle id="Oval-2" fill="#F0F7FA" cx="70" cy="70" r="70"></circle>
                    <g id="layers" transform="translate(31.460674, 34.606742)" fill="#FF3030" fill-rule="nonzero">
                        <path d="M2.18147823,40.706078 L34.5508006,55.2848283 C37.4093715,56.6371017 38.6443504,56.6371017 41.7437184,55.2848283 L74.1106566,40.706078 C75.7080232,39.958266 76.2921348,36.4485669 76.2921348,34.5587289 C74.21079,35.6027987 71.2640063,37.0912552 71.2067872,37.1055902 L38.1460674,52.3772014 L5.08534761,37.1055902 C5.19978581,37.1748763 2.16002107,35.7963219 0,34.5587289 C0,36.4079509 0.462521067,39.7910237 2.18147823,40.706078 L2.18147823,40.706078 Z M38.1460674,67.6512018 L5.08534761,52.3772014 C5.19978581,52.4488767 2.16002107,51.0703223 0,49.8327293 C0,51.6795621 0.462521067,55.0626349 2.18147823,55.9776892 L34.5508006,70.5588286 C37.4093715,71.9111021 38.6443504,71.9111021 41.7437184,70.5588286 L74.1106566,55.9776892 C75.7080232,55.2322664 76.2921348,51.7225673 76.2921348,49.8327293 C74.21079,50.8744099 71.2640063,52.3652555 71.2067872,52.3772014 L38.1460674,67.6512018 L38.1460674,67.6512018 Z M38.1460674,4.01072817 L71.2067872,21.8292007 L38.1460674,35.7915436 L5.08534761,21.8292007 L38.1460674,4.01072817 L38.1460674,4.01072817 Z M2.18147823,25.4296885 L34.5508006,40.0132171 C37.4093715,41.3631013 38.6443504,41.3631013 41.7437184,40.0132171 L74.1106566,25.4296885 C76.4947858,24.3163326 76.5734621,19.5833755 74.1106566,18.2287129 L41.7437184,1.10310132 C39.1998525,-0.406857736 37.4093715,-0.328014938 34.5508006,1.10310132 L2.18147823,18.2287129 C-0.281327247,19.8199039 -0.360003511,24.0798042 2.18147823,25.4296885 L2.18147823,25.4296885 Z M38.1460674,4.01072817 C38.3844803,4.29026173 38.322493,4.07045756 38.1460674,4.01072817 L38.1460674,4.01072817 Z"></path>
                    </g>
                </g>
            </g>
        </g>
    </g>
</svg>