<?xml version="1.0" encoding="UTF-8"?>
<svg width="140px" height="140px" viewBox="0 0 140 140" version="1.1" xmlns="http://www.w3.org/2000/svg" xmlns:xlink="http://www.w3.org/1999/xlink">
    <!-- Generator: Sketch 46.1 (44463) - http://www.bohemiancoding.com/sketch -->
    <title>nolte_icon</title>
    <desc>Created with Sketch.</desc>
    <defs></defs>
    <g id="UI" stroke="none" stroke-width="1" fill="none" fill-rule="evenodd">
        <g id="lean_landing_ui" transform="translate(-905.000000, -1847.000000)">
            <g id="Group-25" transform="translate(760.000000, 1847.000000)">
                <g id="nolte_icon" transform="translate(145.000000, 0.000000)">
                    <circle id="Oval-2" fill="#F0F7FA" cx="70" cy="70" r="70"></circle>
                    <path d="M84.4222718,48.9623644 L91.6000832,48.9623644 L91.6000832,66.3087419 L91.6000832,76.3576779 L84.4222718,69.1798665 L49.8491469,34.6067416 L59.8980829,34.6067416 L84.4222718,59.2505607 L84.4222718,48.9623644 Z M105.517062,100.494746 L105.517062,105.397483 L105.517062,105.517062 L100.486262,105.517062 L41.6738174,46.803795 L41.6738174,98.3423247 L55.9277501,98.3423247 L55.9277501,105.517062 L41.6738174,105.517062 L34.6067416,105.517062 L34.6067416,98.3423247 L34.6067416,39.6290577 L34.6067416,36.9983207 L34.6067416,34.7263205 L34.6067416,34.6067416 L39.6375413,34.6067416 L98.4499862,93.3200086 L98.4499862,41.7814789 L84.1960535,41.7814789 L84.1960535,34.6067416 L98.4499862,34.6067416 L105.517062,34.6067416 L105.517062,100.494746 Z M55.7221576,71.6066504 L90.2746567,106.179775 L80.3168184,106.179775 L55.7221576,81.5359561 L55.7221576,91.8241525 L48.5237203,91.8241525 L48.5237203,74.4777749 L48.5237203,64.428839 L55.7221576,71.6066504 Z" id="Combined-Shape" fill="#FF3030"></path>
                </g>
            </g>
        </g>
    </g>
</svg>