<?xml version="1.0" encoding="UTF-8"?>
<svg width="140px" height="140px" viewBox="0 0 140 140" version="1.1" xmlns="http://www.w3.org/2000/svg" xmlns:xlink="http://www.w3.org/1999/xlink">
    <!-- Generator: Sketch 46.1 (44463) - http://www.bohemiancoding.com/sketch -->
    <title>nolte_icon</title>
    <desc>Created with Sketch.</desc>
    <defs></defs>
    <g id="UI" stroke="none" stroke-width="1" fill="none" fill-rule="evenodd">
        <g id="lean_landing_ui" transform="translate(-905.000000, -1847.000000)">
            <g id="Group-25" transform="translate(760.000000, 1847.000000)">
                <g id="nolte_icon" transform="translate(145.000000, 0.000000)">
                    <circle id="Oval-2" fill="#F0F7FA" cx="70" cy="70" r="70"></circle>
                    <path d="M81.6848704,53.0475627 L87.4944336,53.0475627 L87.4944336,67.0873403 L87.4944336,75.2207288 L81.6848704,69.4111656 L53.7021412,41.4284364 L61.8355296,41.4284364 L81.6848704,61.3746032 L81.6848704,53.0475627 Z M98.758531,94.7567423 L98.758531,98.7249103 L98.758531,98.8216948 L94.686712,98.8216948 L47.0852088,51.300464 L47.0852088,93.0146198 L58.6220293,93.0146198 L58.6220293,98.8216948 L47.0852088,98.8216948 L41.3652726,98.8216948 L41.3652726,93.0146198 L41.3652726,45.493389 L41.3652726,43.3641281 L41.3652726,41.525221 L41.3652726,41.4284364 L45.4370916,41.4284364 L93.0385948,88.9496673 L93.0385948,47.2355115 L81.5017742,47.2355115 L81.5017742,41.4284364 L93.0385948,41.4284364 L98.758531,41.4284364 L98.758531,94.7567423 Z M58.4556273,71.3753512 L86.4216624,99.3580804 L78.3620064,99.3580804 L58.4556273,79.4119136 L58.4556273,87.7389541 L52.62937,87.7389541 L52.62937,73.6991765 L52.62937,65.5657881 L58.4556273,71.3753512 Z" id="Combined-Shape" fill="#FF3030"></path>
                </g>
            </g>
        </g>
    </g>
</svg>